<?xml version="1.0" encoding="UTF-8"?>
<svg xmlns="http://www.w3.org/2000/svg" xmlns:xlink="http://www.w3.org/1999/xlink" viewBox="0 0 50 50" width="50px" height="50px">
<g id="surface57702125">
<path style="fill-rule:nonzero;fill:rgb(0%,0%,0%);fill-opacity:1;stroke-width:10;stroke-linecap:butt;stroke-linejoin:round;stroke:rgb(24.313726%,68.627453%,17.647059%);stroke-opacity:1;stroke-miterlimit:10;" d="M 86.241733 6.882275 C 98.726522 6.924934 107.926588 10.0959 113.998347 13.337963 C 118.889882 15.940146 120.411377 17.760251 121.420967 18.784061 C 123.283731 18.044643 125.118056 17.205688 127.279432 17.205688 C 136.735451 17.205688 144.48512 24.941138 144.48512 34.397156 C 144.48512 41.378969 140.176588 47.194775 134.161707 49.868056 L 134.161707 82.146495 L 142.963625 90.948413 C 144.982805 92.967593 144.982805 96.238096 142.963625 98.243056 C 141.954035 99.252646 140.645834 99.764551 139.323414 99.764551 C 138.000993 99.764551 136.678572 99.252646 135.668982 98.243056 L 135.07176 97.645834 C 135.313493 99.209988 135.541006 100.759921 135.825398 102.395173 C 136.692792 107.386244 137.602845 113.330027 137.602845 123.838295 C 137.602845 133.592924 132.953043 143.717263 124.392858 151.495371 L 129.213295 156.315808 C 131.218255 158.320768 131.218255 161.591271 129.213295 163.610451 C 128.203705 164.620041 126.881284 165.117726 125.558863 165.117726 C 124.236443 165.117726 122.914022 164.620041 121.918652 163.610451 L 115.93221 157.624009 C 107.997686 162.174274 98.058202 165.046628 86.35549 165.103507 C 86.227514 165.117726 86.113757 165.117726 86.000001 165.117726 C 85.914683 165.117726 85.843585 165.117726 85.758268 165.117726 C 85.744048 165.117726 85.715609 165.103507 85.70139 165.103507 C 73.970239 165.060848 64.016535 162.188493 56.067791 157.624009 L 50.08135 163.610451 C 49.085979 164.620041 47.763559 165.117726 46.441138 165.117726 C 45.118717 165.117726 43.796297 164.620041 42.786707 163.610451 C 40.781746 161.591271 40.781746 158.320768 42.786707 156.315808 L 47.592924 151.509591 C 39.032738 143.731483 34.397156 133.607144 34.397156 123.838295 C 34.397156 113.330027 35.307209 107.386244 36.174603 102.395173 C 36.458995 100.759921 36.686508 99.209988 36.928241 97.645834 L 36.331019 98.243056 C 35.321429 99.252646 33.999008 99.764551 32.676588 99.764551 C 31.354167 99.764551 30.045966 99.252646 29.036376 98.243056 C 27.017196 96.238096 27.017196 92.967593 29.036376 90.948413 L 37.838294 82.146495 L 37.838294 49.868056 C 31.823413 47.194775 27.514881 41.378969 27.514881 34.397156 C 27.514881 24.941138 35.264551 17.205688 44.720569 17.205688 C 46.881945 17.205688 48.71627 18.044643 50.579035 18.784061 C 51.588625 17.760251 53.110119 15.940146 58.001654 13.337963 C 64.059194 10.110119 73.216601 6.953373 85.658731 6.896495 C 85.772487 6.882275 85.886244 6.882275 86.000001 6.882275 C 86.085318 6.882275 86.156416 6.882275 86.241733 6.882275 Z M 61.229498 19.409722 C 56.010913 22.196759 53.877977 24.685185 53.877977 24.685185 C 52.797289 25.922289 51.005622 26.2209 49.583664 25.410384 C 48.090609 24.557209 46.483797 24.073744 44.720569 24.073744 C 38.97586 24.073744 34.397156 28.666667 34.397156 34.397156 C 34.397156 39.231812 37.696098 43.213294 42.146826 44.36508 C 43.654101 44.749008 44.720569 46.128307 44.720569 47.692461 L 44.720569 86.000001 C 44.720569 93.991403 43.796297 98.683863 42.943122 103.575398 C 42.089947 108.466932 41.279432 113.713956 41.279432 123.838295 C 41.279432 139.223877 56.537037 158.235451 86.000001 158.235451 C 115.462964 158.235451 130.72057 139.223877 130.72057 123.838295 C 130.72057 113.713956 129.910054 108.466932 129.056879 103.575398 C 128.203705 98.683863 127.279432 93.991403 127.279432 86.000001 L 127.279432 47.692461 C 127.279432 46.128307 128.3459 44.749008 129.853176 44.36508 C 134.303903 43.213294 137.602845 39.231812 137.602845 34.397156 C 137.602845 28.666667 133.024141 24.073744 127.279432 24.073744 C 125.516205 24.073744 123.909392 24.557209 122.416337 25.410384 C 120.994379 26.2209 119.202713 25.922289 118.122025 24.685185 C 118.122025 24.685185 115.989088 22.196759 110.770503 19.409722 C 105.537699 16.622685 97.46098 13.76455 86.000001 13.76455 C 74.539022 13.76455 66.462302 16.622685 61.229498 19.409722 Z M 82.558863 43 C 82.558863 51.503307 75.59127 58.485119 67.073744 58.485119 C 58.570437 58.485119 51.602844 51.503307 51.602844 43 C 51.602844 34.496693 58.570437 27.514881 67.073744 27.514881 C 75.59127 27.514881 82.558863 34.496693 82.558863 43 Z M 120.397157 43 C 120.397157 51.503307 113.415345 58.4709 104.912038 58.4709 C 96.408731 58.4709 89.441138 51.503307 89.441138 43 C 89.441138 34.496693 96.408731 27.529101 104.912038 27.529101 C 113.415345 27.529101 120.397157 34.496693 120.397157 43 Z M 47.422289 32.363757 C 46.512236 34.027447 45.843916 35.819114 45.37467 37.710318 C 45.161376 37.752976 44.948082 37.838294 44.720569 37.838294 C 42.815146 37.838294 41.279432 36.30258 41.279432 34.397156 C 41.279432 32.505953 42.815146 30.956019 44.720569 30.956019 C 45.843916 30.956019 46.796627 31.524802 47.422289 32.363757 Z M 130.72057 34.397156 C 130.72057 36.30258 129.184855 37.838294 127.279432 37.838294 C 127.051919 37.838294 126.838625 37.752976 126.625332 37.710318 C 126.156086 35.819114 125.487765 34.027447 124.577713 32.363757 C 125.203374 31.524802 126.156086 30.956019 127.279432 30.956019 C 129.184855 30.956019 130.72057 32.505953 130.72057 34.397156 Z M 60.219908 37.838294 C 63.063823 37.852513 65.353175 40.156085 65.353175 43 C 65.353175 45.843916 63.063823 48.147487 60.219908 48.161707 C 61.769842 50.237765 64.244048 51.602844 67.073744 51.602844 C 71.865741 51.602844 75.676588 47.791998 75.676588 43 C 75.676588 38.208003 71.865741 34.397156 67.073744 34.397156 C 64.244048 34.397156 61.769842 35.762236 60.219908 37.838294 Z M 98.058202 37.838294 C 100.902117 37.852513 103.205689 40.156085 103.205689 43 C 103.205689 45.843916 100.902117 48.147487 98.058202 48.161707 C 99.608136 50.237765 102.082342 51.588625 104.912038 51.588625 C 109.704035 51.588625 113.514882 47.791998 113.514882 43 C 113.514882 38.208003 109.704035 34.411376 104.912038 34.411376 C 102.082342 34.411376 99.608136 35.762236 98.058202 37.838294 Z M 96.081681 60.49008 C 97.11971 61.129961 98.11508 61.855159 98.968255 62.708334 C 101.442461 65.18254 103.205689 68.509921 103.205689 72.23545 C 103.205689 73.102844 103.006615 76.558202 100.304895 78.918651 C 98.612765 80.397487 96.181218 81.392858 92.882276 81.97586 L 92.882276 86.000001 C 92.896495 87.237104 92.242395 88.38889 91.175927 89.014551 C 90.109458 89.640212 88.772818 89.640212 87.70635 89.014551 C 86.668321 88.417329 86.01422 87.293982 86.000001 86.099538 C 85.985781 87.293982 85.331681 88.417329 84.293651 89.014551 C 83.227183 89.640212 81.890543 89.640212 80.824075 89.014551 C 79.757606 88.38889 79.103506 87.237104 79.117725 86.000001 L 79.117725 81.97586 C 75.818784 81.392858 73.387236 80.397487 71.695106 78.918651 C 68.993387 76.558202 68.794313 73.102844 68.794313 72.23545 C 68.794313 68.509921 70.55754 65.18254 73.031747 62.708334 C 73.884921 61.855159 74.866072 61.129961 75.904101 60.49008 C 76.913691 57.319114 81.122686 55.043982 86.000001 55.043982 C 90.877315 55.043982 95.072091 57.319114 96.081681 60.49008 Z M 77.894842 67.571429 C 76.501323 68.964948 75.676588 70.813493 75.676588 72.23545 C 75.676588 73.102844 75.477514 73.088625 76.231151 73.742725 C 76.970569 74.382606 79.544313 75.676588 86.000001 75.676588 C 92.455689 75.676588 95.029432 74.382606 95.76885 73.742725 C 96.522487 73.088625 96.323413 73.102844 96.323413 72.23545 C 96.323413 70.813493 95.498678 68.964948 94.105159 67.571429 C 93.820768 67.301257 93.522157 67.073744 93.209326 66.832011 C 91.289683 68.097553 88.70172 68.794313 86.000001 68.794313 C 83.298281 68.794313 80.710318 68.083334 78.790675 66.832011 C 78.477844 67.059524 78.179233 67.301257 77.894842 67.571429 Z M 77.894842 67.571429 " transform="matrix(0.274709,0,0,0.274709,1.375,1.375)"/>
<path style=" stroke:none;fill-rule:nonzero;fill:rgb(0%,0%,0%);fill-opacity:1;" d="M 25 3.265625 C 24.96875 3.265625 24.9375 3.265625 24.90625 3.269531 C 21.488281 3.285156 18.972656 4.152344 17.308594 5.039062 C 15.964844 5.753906 15.546875 6.253906 15.269531 6.535156 C 14.757812 6.332031 14.253906 6.101562 13.660156 6.101562 C 11.0625 6.101562 8.933594 8.226562 8.933594 10.824219 C 8.933594 12.742188 10.117188 14.339844 11.769531 15.074219 L 11.769531 23.941406 L 9.351562 26.359375 C 8.796875 26.914062 8.796875 27.8125 9.351562 28.363281 C 9.628906 28.640625 9.988281 28.78125 10.351562 28.78125 C 10.714844 28.78125 11.078125 28.640625 11.355469 28.363281 L 11.519531 28.199219 C 11.453125 28.628906 11.390625 29.054688 11.3125 29.503906 C 11.074219 30.875 10.824219 32.507812 10.824219 35.394531 C 10.824219 38.078125 12.097656 40.859375 14.449219 42.996094 L 13.128906 44.316406 C 12.578125 44.867188 12.578125 45.765625 13.128906 46.320312 C 13.40625 46.597656 13.769531 46.734375 14.132812 46.734375 C 14.496094 46.734375 14.859375 46.597656 15.132812 46.320312 L 16.777344 44.675781 C 18.960938 45.929688 21.695312 46.71875 24.917969 46.730469 C 24.921875 46.730469 24.929688 46.734375 24.933594 46.734375 C 24.957031 46.734375 24.976562 46.734375 25 46.734375 C 25.03125 46.734375 25.0625 46.734375 25.097656 46.730469 C 28.3125 46.714844 31.042969 45.925781 33.222656 44.675781 L 34.867188 46.320312 C 35.140625 46.597656 35.503906 46.734375 35.867188 46.734375 C 36.230469 46.734375 36.59375 46.597656 36.871094 46.320312 C 37.421875 45.765625 37.421875 44.867188 36.871094 44.316406 L 35.546875 42.992188 C 37.898438 40.855469 39.175781 38.074219 39.175781 35.394531 C 39.175781 32.507812 38.925781 30.875 38.6875 29.503906 C 38.609375 29.054688 38.546875 28.628906 38.480469 28.199219 L 38.644531 28.363281 C 38.921875 28.640625 39.285156 28.78125 39.648438 28.78125 C 40.011719 28.78125 40.371094 28.640625 40.648438 28.363281 C 41.203125 27.8125 41.203125 26.914062 40.648438 26.359375 L 38.230469 23.941406 L 38.230469 15.074219 C 39.882812 14.339844 41.066406 12.742188 41.066406 10.824219 C 41.066406 8.226562 38.9375 6.101562 36.339844 6.101562 C 35.746094 6.101562 35.242188 6.332031 34.730469 6.535156 C 34.453125 6.253906 34.035156 5.753906 32.691406 5.039062 C 31.023438 4.148438 28.496094 3.277344 25.066406 3.265625 C 25.042969 3.265625 25.023438 3.265625 25 3.265625 Z M 25 5.15625 C 28.148438 5.15625 30.367188 5.941406 31.804688 6.707031 C 33.238281 7.472656 33.824219 8.15625 33.824219 8.15625 C 34.121094 8.496094 34.613281 8.578125 35.003906 8.355469 C 35.414062 8.121094 35.855469 7.988281 36.339844 7.988281 C 37.917969 7.988281 39.175781 9.25 39.175781 10.824219 C 39.175781 12.152344 38.269531 13.246094 37.046875 13.5625 C 36.632812 13.667969 36.339844 14.046875 36.339844 14.476562 L 36.339844 25 C 36.339844 27.195312 36.59375 28.484375 36.828125 29.828125 C 37.0625 31.171875 37.285156 32.613281 37.285156 35.394531 C 37.285156 39.621094 33.09375 44.84375 25 44.84375 C 16.90625 44.84375 12.714844 39.621094 12.714844 35.394531 C 12.714844 32.613281 12.9375 31.171875 13.171875 29.828125 C 13.40625 28.484375 13.660156 27.195312 13.660156 25 L 13.660156 14.476562 C 13.660156 14.046875 13.367188 13.667969 12.953125 13.5625 C 11.730469 13.246094 10.824219 12.152344 10.824219 10.824219 C 10.824219 9.25 12.082031 7.988281 13.660156 7.988281 C 14.144531 7.988281 14.585938 8.121094 14.996094 8.355469 C 15.386719 8.578125 15.878906 8.496094 16.175781 8.15625 C 16.175781 8.15625 16.761719 7.472656 18.195312 6.707031 C 19.632812 5.941406 21.851562 5.15625 25 5.15625 Z M 19.800781 8.933594 C 17.464844 8.933594 15.550781 10.851562 15.550781 13.1875 C 15.550781 15.523438 17.464844 17.441406 19.800781 17.441406 C 22.140625 17.441406 24.054688 15.523438 24.054688 13.1875 C 24.054688 10.851562 22.140625 8.933594 19.800781 8.933594 Z M 30.195312 8.9375 C 27.859375 8.9375 25.945312 10.851562 25.945312 13.1875 C 25.945312 15.523438 27.859375 17.4375 30.195312 17.4375 C 32.53125 17.4375 34.449219 15.523438 34.449219 13.1875 C 34.449219 10.851562 32.53125 8.9375 30.195312 8.9375 Z M 13.660156 9.878906 C 13.136719 9.878906 12.714844 10.304688 12.714844 10.824219 C 12.714844 11.347656 13.136719 11.769531 13.660156 11.769531 C 13.722656 11.769531 13.78125 11.746094 13.839844 11.734375 C 13.96875 11.214844 14.152344 10.722656 14.402344 10.265625 C 14.230469 10.035156 13.96875 9.878906 13.660156 9.878906 Z M 36.339844 9.878906 C 36.03125 9.878906 35.769531 10.035156 35.597656 10.265625 C 35.847656 10.722656 36.03125 11.214844 36.160156 11.734375 C 36.21875 11.746094 36.277344 11.769531 36.339844 11.769531 C 36.863281 11.769531 37.285156 11.347656 37.285156 10.824219 C 37.285156 10.304688 36.863281 9.878906 36.339844 9.878906 Z M 19.800781 10.824219 C 21.117188 10.824219 22.164062 11.871094 22.164062 13.1875 C 22.164062 14.503906 21.117188 15.550781 19.800781 15.550781 C 19.023438 15.550781 18.34375 15.175781 17.917969 14.605469 C 18.699219 14.601562 19.328125 13.96875 19.328125 13.1875 C 19.328125 12.40625 18.699219 11.773438 17.917969 11.769531 C 18.34375 11.199219 19.023438 10.824219 19.800781 10.824219 Z M 30.195312 10.828125 C 31.511719 10.828125 32.558594 11.871094 32.558594 13.1875 C 32.558594 14.503906 31.511719 15.546875 30.195312 15.546875 C 29.417969 15.546875 28.738281 15.175781 28.3125 14.605469 C 29.09375 14.601562 29.726562 13.96875 29.726562 13.1875 C 29.726562 12.40625 29.09375 11.773438 28.3125 11.769531 C 28.738281 11.199219 29.417969 10.828125 30.195312 10.828125 Z M 25 16.496094 C 23.660156 16.496094 22.503906 17.121094 22.226562 17.992188 C 21.941406 18.167969 21.671875 18.367188 21.4375 18.601562 C 20.757812 19.28125 20.273438 20.195312 20.273438 21.21875 C 20.273438 21.457031 20.328125 22.40625 21.070312 23.054688 C 21.535156 23.460938 22.203125 23.734375 23.109375 23.894531 L 23.109375 25 C 23.105469 25.339844 23.285156 25.65625 23.578125 25.828125 C 23.871094 26 24.238281 26 24.53125 25.828125 C 24.824219 25.65625 25.003906 25.339844 25 25 C 24.996094 25.339844 25.175781 25.65625 25.46875 25.828125 C 25.761719 26 26.128906 26 26.421875 25.828125 C 26.714844 25.65625 26.894531 25.339844 26.890625 25 L 26.890625 23.894531 C 27.796875 23.734375 28.464844 23.460938 28.929688 23.054688 C 29.671875 22.40625 29.726562 21.457031 29.726562 21.21875 C 29.726562 20.195312 29.242188 19.28125 28.5625 18.601562 C 28.328125 18.367188 28.054688 18.167969 27.769531 17.992188 C 27.492188 17.121094 26.339844 16.496094 25 16.496094 Z M 23.019531 19.734375 C 23.546875 20.078125 24.257812 20.273438 25 20.273438 C 25.742188 20.273438 26.453125 20.082031 26.980469 19.734375 C 27.066406 19.800781 27.148438 19.863281 27.226562 19.9375 C 27.609375 20.320312 27.835938 20.828125 27.835938 21.21875 C 27.835938 21.457031 27.890625 21.453125 27.683594 21.632812 C 27.480469 21.808594 26.773438 22.164062 25 22.164062 C 23.226562 22.164062 22.519531 21.808594 22.316406 21.632812 C 22.109375 21.453125 22.164062 21.457031 22.164062 21.21875 C 22.164062 20.828125 22.390625 20.320312 22.773438 19.9375 C 22.851562 19.863281 22.933594 19.796875 23.019531 19.734375 Z M 23.019531 19.734375 "/>
</g>
</svg>
