<?xml version="1.0" encoding="UTF-8"?>
<svg xmlns="http://www.w3.org/2000/svg" xmlns:xlink="http://www.w3.org/1999/xlink" viewBox="0 0 50 50" width="50px" height="50px">
<g id="surface57692911">
<path style="fill-rule:nonzero;fill:rgb(0%,0%,0%);fill-opacity:1;stroke-width:10;stroke-linecap:butt;stroke-linejoin:round;stroke:rgb(18.039216%,80.000001%,35.294119%);stroke-opacity:1;stroke-miterlimit:10;" d="M 149.063824 13.76455 C 154.097554 13.76455 158.235451 17.916667 158.235451 22.936177 L 158.235451 149.063824 C 158.235451 154.097554 154.083334 158.235451 149.063824 158.235451 L 22.936177 158.235451 C 17.916667 158.235451 13.76455 154.083334 13.76455 149.063824 L 13.76455 22.936177 C 13.76455 17.916667 17.916667 13.76455 22.936177 13.76455 Z M 20.646826 22.936177 L 20.646826 149.063824 C 20.646826 150.343586 21.656415 151.353176 22.936177 151.353176 L 149.063824 151.353176 C 150.343586 151.353176 151.353176 150.343586 151.353176 149.063824 L 151.353176 22.936177 C 151.353176 21.656415 150.343586 20.646826 149.063824 20.646826 L 22.936177 20.646826 C 21.656415 20.646826 20.646826 21.656415 20.646826 22.936177 Z M 92.882276 79.117725 L 92.882276 124.478176 C 92.882276 138.214287 84.819776 144.48512 73.045966 144.48512 C 62.409723 144.48512 54.731151 137.346893 51.602844 130.72057 L 62.409723 124.179564 C 64.5 127.876654 67.670966 130.72057 72.23545 130.72057 C 76.60086 130.72057 79.117725 129.014221 79.117725 122.373678 L 79.117725 79.117725 Z M 140.617395 89.640212 L 130.393519 96.195437 C 128.146826 92.171297 125.729498 90.564485 121.96131 90.564485 C 118.122025 90.564485 115.676257 93.010252 115.676257 96.195437 C 115.676257 100.13426 118.122025 101.726853 123.752977 104.17262 L 127.02348 105.566138 C 138.185848 110.343916 144.48512 115.221231 144.48512 126.184525 C 144.48512 138.000993 135.199736 144.48512 122.729168 144.48512 C 110.54299 144.48512 103.618056 138.342263 99.764551 130.72057 L 110.073744 123.838295 C 112.88922 128.431218 115.946429 132.825067 122.430556 132.825067 C 127.876654 132.825067 130.72057 130.109128 130.72057 126.369379 C 130.72057 121.861773 127.762898 120.269181 121.790676 117.638559 L 118.505953 116.230821 C 109.035715 112.206681 102.736443 107.144511 102.736443 96.465609 C 102.736443 86.611442 110.244379 79.117725 121.96131 79.117725 C 130.308202 79.117725 136.308863 82.018519 140.617395 89.640212 Z M 140.617395 89.640212 " transform="matrix(0.274709,0,0,0.274709,1.375,1.375)"/>
<path style=" stroke:none;fill-rule:nonzero;fill:rgb(0%,0%,0%);fill-opacity:1;" d="M 7.675781 5.15625 C 6.296875 5.15625 5.15625 6.296875 5.15625 7.675781 L 5.15625 42.324219 C 5.15625 43.703125 6.296875 44.84375 7.675781 44.84375 L 42.324219 44.84375 C 43.703125 44.84375 44.84375 43.707031 44.84375 42.324219 L 44.84375 7.675781 C 44.84375 6.296875 43.707031 5.15625 42.324219 5.15625 Z M 7.675781 7.046875 L 42.324219 7.046875 C 42.675781 7.046875 42.953125 7.324219 42.953125 7.675781 L 42.953125 42.324219 C 42.953125 42.675781 42.675781 42.953125 42.324219 42.953125 L 7.675781 42.953125 C 7.324219 42.953125 7.046875 42.675781 7.046875 42.324219 L 7.046875 7.675781 C 7.046875 7.324219 7.324219 7.046875 7.675781 7.046875 Z M 23.109375 23.109375 L 23.109375 34.992188 C 23.109375 36.816406 22.417969 37.285156 21.21875 37.285156 C 19.964844 37.285156 19.09375 36.503906 18.519531 35.488281 L 15.550781 37.285156 C 16.410156 39.105469 18.519531 41.066406 21.441406 41.066406 C 24.675781 41.066406 26.890625 39.34375 26.890625 35.570312 L 26.890625 23.109375 Z M 34.878906 23.109375 C 31.660156 23.109375 29.597656 25.167969 29.597656 27.875 C 29.597656 30.808594 31.328125 32.199219 33.929688 33.304688 L 34.832031 33.691406 C 36.472656 34.414062 37.285156 34.851562 37.285156 36.089844 C 37.285156 37.117188 36.503906 37.863281 35.007812 37.863281 C 33.226562 37.863281 32.386719 36.65625 31.613281 35.394531 L 28.78125 37.285156 C 29.839844 39.378906 31.742188 41.066406 35.089844 41.066406 C 38.515625 41.066406 41.066406 39.285156 41.066406 36.039062 C 41.066406 33.027344 39.335938 31.6875 36.269531 30.375 L 35.371094 29.992188 C 33.824219 29.320312 33.152344 28.882812 33.152344 27.800781 C 33.152344 26.925781 33.824219 26.253906 34.878906 26.253906 C 35.914062 26.253906 36.578125 26.695312 37.195312 27.800781 L 40.003906 26 C 38.820312 23.90625 37.171875 23.109375 34.878906 23.109375 Z M 34.878906 23.109375 "/>
</g>
</svg>
