<?xml version="1.0" encoding="UTF-8"?>
<svg xmlns="http://www.w3.org/2000/svg" xmlns:xlink="http://www.w3.org/1999/xlink" viewBox="0 0 48 48" width="48px" height="48px">
<g id="surface57401965">
<path style="fill-rule:nonzero;fill:rgb(21.960784%,55.686277%,23.529412%);fill-opacity:1;stroke-width:10;stroke-linecap:butt;stroke-linejoin:round;stroke:rgb(28.627452%,75.686276%,26.666668%);stroke-opacity:1;stroke-miterlimit:10;" d="M 80.996511 90.038888 C 81.438071 89.789311 81.918027 89.674121 82.397983 89.674121 C 82.87794 89.674121 83.357896 89.789311 83.799456 90.038888 L 106.894955 102.824925 C 107.758876 103.304882 108.296428 104.168803 108.296428 105.128716 L 108.296428 130.719988 C 108.296428 131.660702 107.758876 132.543822 106.894955 133.023778 L 83.799456 145.829013 C 82.935534 146.289772 81.860432 146.289772 81.015709 145.829013 L 57.901012 133.023778 C 57.03709 132.543822 56.499539 131.660702 56.499539 130.719988 L 56.499539 105.128716 C 56.499539 104.168803 57.03709 103.285683 57.901012 102.824925 L 80.996511 90.038888 M 199.872097 113.057594 C 199.94889 113.019198 200.025684 113 200.102477 113 C 200.17927 113 200.256063 113.019198 200.332856 113.057594 L 204.191705 115.188601 C 204.326092 115.265394 204.422084 115.41898 204.422084 115.572566 L 204.422084 119.834578 C 204.422084 120.007362 204.326092 120.14175 204.191705 120.218543 L 200.332856 122.368747 C 200.198468 122.44554 200.025684 122.44554 199.872097 122.368747 L 196.013248 120.218543 C 195.878861 120.14175 195.782869 120.007362 195.782869 119.834578 L 195.782869 115.572566 C 195.782869 115.41898 195.878861 115.265394 196.013248 115.188601 L 199.872097 113.057594 " transform="matrix(0.203469,0,0,0.203469,1.008,1.008)"/>
<path style="fill-rule:nonzero;fill:rgb(21.568628%,27.843139%,30.980393%);fill-opacity:1;stroke-width:10;stroke-linecap:butt;stroke-linejoin:round;stroke:rgb(28.627452%,75.686276%,26.666668%);stroke-opacity:1;stroke-miterlimit:10;" d="M 169.50046 64.927573 L 169.50046 130.489609 C 169.50046 131.449521 168.962909 132.332641 168.118186 132.812597 L 145.003489 145.598634 C 144.139567 146.078591 143.083663 146.078591 142.219742 145.598634 L 119.105044 132.812597 C 118.241123 132.332641 117.703572 131.449521 117.703572 130.489609 L 117.703572 104.917535 C 117.703572 103.957622 118.241123 103.074503 119.105044 102.594546 L 142.219742 89.808509 L 142.200543 89.808509 C 142.642103 89.57813 143.12206 89.462941 143.602016 89.462941 C 144.081972 89.462941 144.561929 89.57813 145.003489 89.808509 L 155.370546 95.548787 L 155.370546 57.651434 C 155.370546 57.248271 155.600925 56.864306 155.946493 56.653125 C 156.292062 56.461143 156.733622 56.441944 157.07919 56.653125 L 168.329367 62.930954 C 169.039702 63.334117 169.50046 64.082849 169.50046 64.927573 Z M 155.370546 123.520643 L 155.370546 111.886501 C 155.370546 111.464139 155.140166 111.060976 154.737003 110.830597 L 144.235558 105.032724 C 144.043576 104.917535 143.832395 104.85994 143.602016 104.85994 C 143.390835 104.85994 143.160456 104.917535 142.968474 105.032724 L 132.467029 110.830597 C 132.063866 111.060976 131.833487 111.464139 131.833487 111.886501 L 131.833487 123.520643 C 131.833487 123.943004 132.063866 124.365366 132.467029 124.576547 L 142.968474 130.393617 C 143.371637 130.604798 143.851593 130.604798 144.235558 130.393617 L 154.737003 124.576547 C 155.140166 124.365366 155.370546 123.943004 155.370546 123.520643 Z M 155.370546 123.520643 " transform="matrix(0.203469,0,0,0.203469,1.008,1.008)"/>
<path style="fill-rule:nonzero;fill:rgb(18.039216%,49.019608%,19.607843%);fill-opacity:1;stroke-width:10;stroke-linecap:butt;stroke-linejoin:round;stroke:rgb(28.627452%,75.686276%,26.666668%);stroke-opacity:1;stroke-miterlimit:10;" d="M 80.996511 90.038888 C 81.438071 89.789311 81.918027 89.674121 82.397983 89.674121 C 82.87794 89.674121 83.357896 89.789311 83.799456 90.038888 L 106.894955 102.824925 C 107.758876 103.304882 108.296428 104.168803 108.296428 105.128716 L 83.799456 145.829013 C 82.935534 146.289772 81.860432 146.289772 81.015709 145.829013 L 57.901012 133.023778 C 57.03709 132.543822 56.499539 131.660702 56.499539 130.719988 L 80.996511 90.038888 " transform="matrix(0.203469,0,0,0.203469,1.008,1.008)"/>
<path style="fill-rule:nonzero;fill:rgb(29.803923%,68.627453%,31.37255%);fill-opacity:1;stroke-width:10;stroke-linecap:butt;stroke-linejoin:round;stroke:rgb(28.627452%,75.686276%,26.666668%);stroke-opacity:1;stroke-miterlimit:10;" d="M 80.996511 90.038888 C 81.438071 89.789311 81.918027 89.674121 82.397983 89.674121 C 82.87794 89.674121 83.357896 89.789311 83.799456 90.038888 L 108.296428 130.719988 C 108.296428 131.660702 107.758876 132.543822 106.894955 133.023778 L 83.799456 145.829013 C 82.935534 146.289772 81.860432 146.289772 80.996511 145.829013 L 56.499539 105.128716 C 56.499539 104.168803 57.03709 103.285683 57.901012 102.824925 L 80.996511 90.038888 " transform="matrix(0.203469,0,0,0.203469,1.008,1.008)"/>
<path style="fill-rule:nonzero;fill:rgb(21.568628%,27.843139%,30.980393%);fill-opacity:1;stroke-width:10;stroke-linecap:butt;stroke-linejoin:round;stroke:rgb(28.627452%,75.686276%,26.666668%);stroke-opacity:1;stroke-miterlimit:10;" d="M 226.000921 104.97513 L 226.000921 113.825525 C 226.000921 114.631851 225.559361 115.380583 224.868224 115.783746 L 213.579651 122.349549 C 213.234082 122.56073 212.792522 122.56073 212.446954 122.349549 C 212.082187 122.157567 211.871006 121.773602 211.871006 121.370438 L 211.871006 111.905699 C 211.871006 111.464139 211.640627 111.060976 211.256662 110.849795 L 200.736019 105.032724 C 200.544036 104.936733 200.313657 104.879138 200.102477 104.879138 C 199.872097 104.879138 199.660917 104.917535 199.468934 105.032724 L 188.948291 110.849795 C 188.564326 111.060976 188.333947 111.464139 188.333947 111.886501 L 188.333947 123.501444 C 188.333947 123.943004 188.583524 124.365366 188.967489 124.576547 L 212.15898 137.228196 C 213.138091 137.765747 213.138091 139.167219 212.15898 139.704771 L 201.503949 145.598634 C 200.640028 146.078591 199.584124 146.078591 198.720202 145.598634 L 175.605505 132.812597 C 174.741583 132.332641 174.204032 131.430323 174.204032 130.451212 L 174.204032 104.97513 C 174.204032 103.97682 174.741583 103.074503 175.605505 102.594546 L 198.701004 89.808509 C 199.142564 89.57813 199.62252 89.462941 200.102477 89.462941 C 200.582433 89.462941 201.062389 89.57813 201.503949 89.808509 L 224.599448 102.594546 C 225.46337 103.074503 226.000921 103.97682 226.000921 104.97513 Z M 51.795967 104.97513 L 51.795967 140.107934 C 51.795967 140.511097 51.565588 140.895062 51.220019 141.106243 C 50.874451 141.298226 50.432891 141.298226 50.087322 141.106243 L 38.798749 134.54044 C 38.088414 134.137277 37.666052 133.388545 37.666052 132.582218 L 37.666052 111.886501 C 37.666052 111.464139 37.435673 111.060976 37.051708 110.849795 L 26.531065 105.032724 C 26.339083 104.917535 26.108704 104.85994 25.897523 104.85994 C 25.667144 104.85994 25.455963 104.917535 25.26398 105.032724 L 14.743337 110.849795 C 14.359372 111.060976 14.128993 111.464139 14.128993 111.886501 L 14.128993 132.56302 C 14.128993 133.388545 13.687434 134.137277 12.996296 134.54044 L 1.707723 141.087045 C 1.362155 141.298226 0.920595 141.298226 0.575026 141.106243 C 0.210259 140.895062 -0.000921321 140.511097 -0.000921321 140.107934 L -0.000921321 104.97513 C -0.000921321 103.97682 0.53663 103.074503 1.400551 102.594546 L 24.49605 89.808509 C 24.93761 89.57813 25.417567 89.462941 25.897523 89.462941 C 26.377479 89.462941 26.857436 89.57813 27.298995 89.808509 L 50.394495 102.594546 C 51.258416 103.074503 51.795967 103.97682 51.795967 104.97513 Z M 51.795967 104.97513 " transform="matrix(0.203469,0,0,0.203469,1.008,1.008)"/>
<path style=" stroke:none;fill-rule:nonzero;fill:rgb(21.960784%,55.686277%,23.529412%);fill-opacity:1;" d="M 17.488281 19.328125 L 12.789062 21.929688 C 12.613281 22.023438 12.503906 22.203125 12.503906 22.398438 L 12.503906 27.605469 C 12.503906 27.796875 12.613281 27.976562 12.789062 28.074219 L 17.492188 30.679688 C 17.664062 30.773438 17.882812 30.773438 18.058594 30.679688 L 22.757812 28.074219 C 22.933594 27.976562 23.042969 27.796875 23.042969 27.605469 L 23.042969 22.398438 C 23.042969 22.203125 22.933594 22.027344 22.757812 21.929688 L 18.058594 19.328125 C 17.96875 19.277344 17.871094 19.253906 17.773438 19.253906 C 17.675781 19.253906 17.578125 19.277344 17.488281 19.328125 M 41.675781 24.011719 L 40.890625 24.445312 C 40.863281 24.460938 40.84375 24.492188 40.84375 24.523438 L 40.84375 25.390625 C 40.84375 25.425781 40.863281 25.453125 40.890625 25.46875 L 41.675781 25.90625 C 41.707031 25.921875 41.742188 25.921875 41.769531 25.90625 L 42.554688 25.46875 C 42.582031 25.453125 42.601562 25.425781 42.601562 25.390625 L 42.601562 24.523438 C 42.601562 24.492188 42.582031 24.460938 42.554688 24.445312 L 41.769531 24.011719 C 41.753906 24.003906 41.738281 24 41.722656 24 C 41.707031 24 41.691406 24.003906 41.675781 24.011719 "/>
<path style=" stroke:none;fill-rule:nonzero;fill:rgb(21.568628%,27.843139%,30.980393%);fill-opacity:1;" d="M 35.257812 13.8125 L 32.96875 12.535156 C 32.898438 12.492188 32.808594 12.496094 32.738281 12.535156 C 32.667969 12.578125 32.621094 12.65625 32.621094 12.738281 L 32.621094 20.449219 L 30.511719 19.28125 C 30.421875 19.234375 30.324219 19.210938 30.226562 19.210938 C 30.128906 19.210938 30.03125 19.234375 29.941406 19.28125 L 29.945312 19.28125 L 25.242188 21.882812 C 25.066406 21.980469 24.957031 22.160156 24.957031 22.355469 L 24.957031 27.558594 C 24.957031 27.753906 25.066406 27.933594 25.242188 28.03125 L 29.945312 30.632812 C 30.121094 30.730469 30.335938 30.730469 30.511719 30.632812 L 35.214844 28.03125 C 35.386719 27.933594 35.496094 27.753906 35.496094 27.558594 L 35.496094 14.21875 C 35.496094 14.046875 35.402344 13.894531 35.257812 13.8125 Z M 32.492188 26.355469 L 30.355469 27.539062 C 30.277344 27.582031 30.179688 27.582031 30.097656 27.539062 L 27.960938 26.355469 C 27.878906 26.3125 27.832031 26.226562 27.832031 26.140625 L 27.832031 23.773438 C 27.832031 23.6875 27.882812 23.605469 27.960938 23.558594 L 30.097656 22.378906 C 30.136719 22.355469 30.183594 22.34375 30.226562 22.34375 C 30.273438 22.34375 30.316406 22.355469 30.355469 22.378906 L 32.492188 23.558594 C 32.574219 23.605469 32.621094 23.6875 32.621094 23.773438 L 32.621094 26.140625 C 32.621094 26.226562 32.574219 26.3125 32.492188 26.355469 Z M 32.492188 26.355469 "/>
<path style=" stroke:none;fill-rule:nonzero;fill:rgb(18.039216%,49.019608%,19.607843%);fill-opacity:1;" d="M 17.488281 19.328125 L 12.503906 27.605469 C 12.503906 27.796875 12.613281 27.976562 12.789062 28.074219 L 17.492188 30.679688 C 17.664062 30.773438 17.882812 30.773438 18.058594 30.679688 L 23.042969 22.398438 C 23.042969 22.203125 22.933594 22.027344 22.757812 21.929688 L 18.058594 19.328125 C 17.96875 19.277344 17.871094 19.253906 17.773438 19.253906 C 17.675781 19.253906 17.578125 19.277344 17.488281 19.328125 "/>
<path style=" stroke:none;fill-rule:nonzero;fill:rgb(29.803923%,68.627453%,31.37255%);fill-opacity:1;" d="M 17.488281 19.328125 L 12.789062 21.929688 C 12.613281 22.023438 12.503906 22.203125 12.503906 22.398438 L 17.488281 30.679688 C 17.664062 30.773438 17.882812 30.773438 18.058594 30.679688 L 22.757812 28.074219 C 22.933594 27.976562 23.042969 27.796875 23.042969 27.605469 L 18.058594 19.328125 C 17.96875 19.277344 17.871094 19.253906 17.773438 19.253906 C 17.675781 19.253906 17.578125 19.277344 17.488281 19.328125 "/>
<path style=" stroke:none;fill-rule:nonzero;fill:rgb(21.568628%,27.843139%,30.980393%);fill-opacity:1;" d="M 46.707031 21.882812 L 42.007812 19.28125 C 41.917969 19.234375 41.820312 19.210938 41.722656 19.210938 C 41.625 19.210938 41.527344 19.234375 41.4375 19.28125 L 36.738281 21.882812 C 36.5625 21.980469 36.453125 22.164062 36.453125 22.367188 L 36.453125 27.550781 C 36.453125 27.75 36.5625 27.933594 36.738281 28.03125 L 41.441406 30.632812 C 41.617188 30.730469 41.832031 30.730469 42.007812 30.632812 L 44.175781 29.433594 C 44.375 29.324219 44.375 29.039062 44.175781 28.929688 L 39.457031 26.355469 C 39.378906 26.3125 39.328125 26.226562 39.328125 26.136719 L 39.328125 23.773438 C 39.328125 23.6875 39.375 23.605469 39.453125 23.5625 L 41.59375 22.378906 C 41.632812 22.355469 41.675781 22.347656 41.722656 22.347656 C 41.765625 22.347656 41.8125 22.359375 41.851562 22.378906 L 43.992188 23.5625 C 44.070312 23.605469 44.117188 23.6875 44.117188 23.777344 L 44.117188 25.703125 C 44.117188 25.785156 44.160156 25.863281 44.234375 25.902344 C 44.304688 25.945312 44.394531 25.945312 44.464844 25.902344 L 46.761719 24.566406 C 46.902344 24.484375 46.992188 24.332031 46.992188 24.167969 L 46.992188 22.367188 C 46.992188 22.164062 46.882812 21.980469 46.707031 21.882812 Z M 11.261719 21.882812 L 6.5625 19.28125 C 6.472656 19.234375 6.375 19.210938 6.277344 19.210938 C 6.179688 19.210938 6.082031 19.234375 5.992188 19.28125 L 1.292969 21.882812 C 1.117188 21.980469 1.007812 22.164062 1.007812 22.367188 L 1.007812 29.515625 C 1.007812 29.597656 1.050781 29.675781 1.125 29.71875 C 1.195312 29.757812 1.285156 29.757812 1.355469 29.714844 L 3.652344 28.382812 C 3.792969 28.300781 3.882812 28.148438 3.882812 27.980469 L 3.882812 23.773438 C 3.882812 23.6875 3.929688 23.605469 4.007812 23.5625 L 6.148438 22.378906 C 6.1875 22.355469 6.230469 22.34375 6.277344 22.34375 C 6.320312 22.34375 6.367188 22.355469 6.40625 22.378906 L 8.546875 23.5625 C 8.625 23.605469 8.671875 23.6875 8.671875 23.773438 L 8.671875 27.984375 C 8.671875 28.148438 8.757812 28.300781 8.902344 28.382812 L 11.199219 29.71875 C 11.269531 29.757812 11.359375 29.757812 11.429688 29.71875 C 11.5 29.675781 11.546875 29.597656 11.546875 29.515625 L 11.546875 22.367188 C 11.546875 22.164062 11.4375 21.980469 11.261719 21.882812 Z M 11.261719 21.882812 "/>
</g>
</svg>
