<?xml version="1.0" encoding="UTF-8"?>
<svg xmlns="http://www.w3.org/2000/svg" xmlns:xlink="http://www.w3.org/1999/xlink" viewBox="0 0 50 50" width="50px" height="50px">
<g id="surface57393735">
<path style="fill-rule:nonzero;fill:rgb(0%,0%,0%);fill-opacity:1;stroke-width:10;stroke-linecap:butt;stroke-linejoin:round;stroke:rgb(21.568628%,80.784315%,38.039216%);stroke-opacity:1;stroke-miterlimit:10;" d="M 154.794313 13.76455 C 156.699737 13.76455 158.235451 15.300265 158.235451 17.205688 L 158.235451 154.794313 C 158.235451 156.699737 156.699737 158.235451 154.794313 158.235451 L 17.205688 158.235451 C 15.300265 158.235451 13.76455 156.699737 13.76455 154.794313 L 13.76455 17.205688 C 13.76455 15.300265 15.300265 13.76455 17.205688 13.76455 Z M 20.646826 151.353176 L 151.353176 151.353176 L 151.353176 20.646826 L 20.646826 20.646826 Z M 99.764551 79.117725 L 99.764551 90.976853 L 82.558863 90.976853 L 82.558863 144.48512 L 68.794313 144.48512 L 68.794313 90.976853 L 51.602844 90.976853 L 51.602844 79.117725 Z M 141.954035 81.208003 L 141.47057 93.948744 C 141.47057 93.948744 134.986443 89.625993 127.649141 89.625993 C 120.326059 89.625993 117.681218 93.109789 117.681218 96.835318 C 117.681218 106.447752 144.48512 105.480821 144.48512 124.833665 C 144.48512 154.637898 103.618056 141.427911 103.618056 141.427911 L 103.618056 127.123017 C 103.618056 127.123017 111.424604 133.009922 120.809525 133.009922 C 130.180226 133.009922 129.824736 126.881284 129.824736 126.042329 C 129.824736 117.155093 103.262567 117.140874 103.262567 97.43254 C 103.262567 82.359789 115.505623 79.117725 126.212964 79.160384 C 134.545636 79.188823 141.954035 81.208003 141.954035 81.208003 Z M 141.954035 81.208003 " transform="matrix(0.274709,0,0,0.274709,1.375,1.375)"/>
<path style=" stroke:none;fill-rule:nonzero;fill:rgb(0%,0%,0%);fill-opacity:1;" d="M 6.101562 5.15625 C 5.578125 5.15625 5.15625 5.578125 5.15625 6.101562 L 5.15625 43.898438 C 5.15625 44.421875 5.578125 44.84375 6.101562 44.84375 L 43.898438 44.84375 C 44.421875 44.84375 44.84375 44.421875 44.84375 43.898438 L 44.84375 6.101562 C 44.84375 5.578125 44.421875 5.15625 43.898438 5.15625 Z M 7.046875 7.046875 L 42.953125 7.046875 L 42.953125 42.953125 L 7.046875 42.953125 Z M 15.550781 23.109375 L 15.550781 26.367188 L 20.273438 26.367188 L 20.273438 41.066406 L 24.054688 41.066406 L 24.054688 26.367188 L 28.78125 26.367188 L 28.78125 23.109375 Z M 36.046875 23.121094 C 33.105469 23.109375 29.742188 24 29.742188 28.140625 C 29.742188 33.554688 37.039062 33.558594 37.039062 36 C 37.039062 36.230469 37.136719 37.914062 34.5625 37.914062 C 31.984375 37.914062 29.839844 36.296875 29.839844 36.296875 L 29.839844 40.226562 C 29.839844 40.226562 41.066406 43.855469 41.066406 35.667969 C 41.066406 30.351562 33.703125 30.617188 33.703125 27.976562 C 33.703125 26.953125 34.429688 25.996094 36.445312 25.996094 C 38.457031 25.996094 40.238281 27.183594 40.238281 27.183594 L 40.371094 23.683594 C 40.371094 23.683594 38.335938 23.128906 36.046875 23.121094 Z M 36.046875 23.121094 "/>
</g>
</svg>
