<?xml version="1.0" encoding="UTF-8"?>
<svg xmlns="http://www.w3.org/2000/svg" xmlns:xlink="http://www.w3.org/1999/xlink" viewBox="0 0 24 24" width="24px" height="24px">
<g id="surface57397064">
<path style="fill-rule:nonzero;fill:rgb(0%,0%,0%);fill-opacity:1;stroke-width:10;stroke-linecap:butt;stroke-linejoin:round;stroke:rgb(10.588235%,88.235295%,23.921569%);stroke-opacity:1;stroke-miterlimit:10;" d="M 150.491706 21.508295 L 150.491706 150.491706 L 21.508295 150.491706 L 21.508295 21.508295 Z M 35.846368 136.153633 L 136.153633 136.153633 L 136.153633 35.846368 L 35.846368 35.846368 Z M 92.428434 71.661927 L 92.428434 82.059993 L 77.260886 82.059993 L 77.260886 129.014221 L 65.026125 129.014221 L 65.026125 82.059993 L 50.154817 82.059993 L 50.154817 71.661927 Z M 128.451362 73.498623 L 128.036625 84.666915 C 128.036625 84.666915 122.348794 80.875028 115.92036 80.875028 C 109.491927 80.875028 107.151621 83.926312 107.151621 87.214589 C 107.151621 95.627839 130.673171 94.798364 130.673171 111.772984 C 130.673171 137.901456 94.827988 126.318426 94.827988 126.318426 L 94.827988 113.7578 C 94.827988 113.7578 101.700783 118.94202 109.906664 118.94202 C 118.142169 118.94202 117.816304 113.550431 117.816304 112.809828 C 117.816304 105.018685 94.502123 105.018685 94.502123 87.747824 C 94.502123 75.987049 102.97462 72.432154 111.476742 71.810048 C 119.94924 71.187941 128.451362 73.498623 128.451362 73.498623 Z M 128.451362 73.498623 " transform="matrix(0.13186,0,0,0.13186,0.66,0.66)"/>
<path style=" stroke:none;fill-rule:nonzero;fill:rgb(0%,0%,0%);fill-opacity:1;" d="M 3.496094 3.496094 L 3.496094 20.503906 L 20.503906 20.503906 L 20.503906 3.496094 Z M 5.386719 5.386719 L 18.613281 5.386719 L 18.613281 18.613281 L 5.386719 18.613281 Z M 7.273438 10.109375 L 7.273438 11.480469 L 9.234375 11.480469 L 9.234375 17.671875 L 10.847656 17.671875 L 10.847656 11.480469 L 12.847656 11.480469 L 12.847656 10.109375 Z M 15.359375 10.128906 C 14.238281 10.210938 13.121094 10.679688 13.121094 12.230469 C 13.121094 14.507812 16.195312 14.507812 16.195312 15.535156 C 16.195312 15.632812 16.238281 16.34375 15.152344 16.34375 C 14.070312 16.34375 13.164062 15.660156 13.164062 15.660156 L 13.164062 17.316406 C 13.164062 17.316406 17.890625 18.84375 17.890625 15.398438 C 17.890625 13.160156 14.789062 13.269531 14.789062 12.160156 C 14.789062 11.726562 15.097656 11.324219 15.945312 11.324219 C 16.792969 11.324219 17.542969 11.824219 17.542969 11.824219 L 17.597656 10.351562 C 17.597656 10.351562 16.476562 10.046875 15.359375 10.128906 Z M 15.359375 10.128906 "/>
</g>
</svg>
